<svg viewBox="0 0 12 12" xmlns="http://www.w3.org/2000/svg">
<g clip-path="url(#clip0_1_53)">
<path d="M1.17216 12C0.959335 11.9509 0.749786 11.8887 0.569704 11.7578C0.196443 11.4828 0.00326458 11.1129 -9.63686e-06 10.6448C-0.00328385 9.63011 -9.63686e-06 8.61211 -9.63686e-06 7.59738C-9.63686e-06 5.52537 -9.63686e-06 3.45008 -9.63686e-06 1.3748C-9.63686e-06 0.716858 0.405993 0.189853 1.02809 0.0392799C1.13287 0.0130933 1.24419 0.00327332 1.35224 0C3.53287 0 5.7135 0 7.89412 0C7.92359 0 7.95633 0 7.99235 0C7.99235 0.445172 7.99235 0.880524 7.99235 1.32897C5.77898 1.32897 3.56561 1.32897 1.34569 1.32897C1.34569 4.44517 1.34569 7.54828 1.34569 10.6579C4.44637 10.6579 7.55033 10.6579 10.6641 10.6579C10.6641 8.89034 10.6641 7.12602 10.6641 5.36825C10.6805 5.35188 10.687 5.34534 10.6936 5.34534C11.129 5.34534 11.5678 5.34534 12.0033 5.34861C12.0033 7.1784 12.0033 9.00491 12.0033 10.8347C11.9967 10.8609 11.9869 10.8871 11.9803 10.9133C11.9018 11.3061 11.6988 11.617 11.3517 11.8134C11.1913 11.9051 11.0046 11.9444 10.8311 12.0098C7.60927 12 4.39071 12 1.17216 12Z" fill="url(#paint0_linear_1_53)"/>
<path d="M12 2.0164C11.9639 2.04586 11.9279 2.07532 11.8952 2.10806C9.74402 4.25863 7.58958 6.41247 5.43515 8.56632C5.40568 8.59578 5.37949 8.63179 5.35984 8.6547C4.35138 7.64652 3.35602 6.65143 2.37048 5.66616C2.66516 5.37156 2.97294 5.06387 3.28399 4.7529C3.9552 5.42393 4.63951 6.11133 5.3271 6.79873C7.24252 4.88711 9.14811 2.97876 11.0635 1.06714C11.3811 1.38138 11.6922 1.68907 12.0032 1.99349C12 2.00004 12 2.00658 12 2.0164Z" fill="url(#paint1_linear_1_53)"/>
</g>
<defs>
<linearGradient id="paint0_linear_1_53" x1="-0.111199" y1="1.35357" x2="11.5877" y2="0.525876" gradientUnits="userSpaceOnUse">
<stop stop-color="#6AF6FF"/>
<stop offset="1" stop-color="#E140E4"/>
</linearGradient>
<linearGradient id="paint1_linear_1_53" x1="2.28243" y1="1.9223" x2="11.6412" y2="1.08134" gradientUnits="userSpaceOnUse">
<stop stop-color="#6AF6FF"/>
<stop offset="1" stop-color="#E140E4"/>
</linearGradient>
<clipPath id="clip0_1_53">
<rect width="12" height="12" fill="white"/>
</clipPath>
</defs>
</svg>
