<svg width="22" height="18" viewBox="0 0 22 18" fill="none" xmlns="http://www.w3.org/2000/svg">
<path d="M21.4793 2.10774C20.6894 2.45422 19.8299 2.70358 18.9445 2.80069C19.8637 2.24538 20.5521 1.36807 20.8805 0.333363C20.0179 0.855149 19.0729 1.22103 18.0875 1.41479C17.6756 0.967064 17.1775 0.610386 16.6241 0.36698C16.0707 0.123574 15.474 -0.00134334 14.8711 1.08941e-05C12.4317 1.08941e-05 10.4699 2.01062 10.4699 4.47796C10.4699 4.82443 10.5112 5.17091 10.5783 5.50426C6.92574 5.31002 3.66809 3.53564 1.50234 0.818955C1.10772 1.50434 0.900923 2.28472 0.903469 3.07893C0.903469 4.63282 1.68045 6.00298 2.86529 6.8088C2.16705 6.78083 1.48516 6.58568 0.875075 6.23921V6.29433C0.875075 8.47031 2.38774 10.2736 4.40377 10.6883C4.02524 10.7883 3.63584 10.8394 3.24475 10.8405C2.95822 10.8405 2.68718 10.8116 2.41355 10.7723C2.97112 12.5467 4.59479 13.8354 6.52821 13.8774C5.01554 15.0822 3.12084 15.7909 1.06351 15.7909C0.694381 15.7909 0.353644 15.7778 0 15.7358C1.95149 17.0089 4.26696 17.7438 6.76053 17.7438C14.8556 17.7438 19.2852 10.9245 19.2852 5.00554C19.2852 4.81131 19.2852 4.61707 19.2723 4.42283C20.1293 3.785 20.8805 2.99493 21.4793 2.10774Z" fill="#F0F0F0"/>
</svg>
